# xmcd
#
# Track frame offsets:
#	150
#	12387
#	21382
#	31197
#	44845
#	55812
#	66437
#	76877
#	85155
#	96077
#	104467
#	116462
#
# Disc length: 1778
#
# Revision: 3
# Processed by: cddbd v1.5.1PL0 Copyright (c) Steve Scherf et al.
# Submitted via: DiscPlay 4.0.4
# Normalized: r2:DSETVAR1,TDELIM( - )
#
DISCID=9a06f00c
DTITLE=Various Artist - Six Days On The Road
DYEAR=1900
DGENRE=
TTITLE0=Bobby Bear - 500 Miles Away From Home
TTITLE1=Dave Dudley - Keep On Truckin'
TTITLE2=Johnny Horton - It's A Long Rocky Road
TTITLE3=Paul Martin - Truckin' Cafe
TTITLE4=Roger Miller - King Of The Road
TTITLE5=Frankie Laine - 16 Tons
TTITLE6=Roy Drusky - Long, Long Texas Roads
TTITLE7=Sonny Burgess - Truckin' Down The Avenue
TTITLE8=Dave Dudley - How Fast Them Trucks Can Go
TTITLE9=Johnny Cash - Country Boy
TTITLE10=Rod Hart - Asphalt Cowboy
TTITLE11=The Romans - On The Road Again
EXTD=
EXTT0=
EXTT1=
EXTT2=
EXTT3=
EXTT4=
EXTT5=
EXTT6=
EXTT7=
EXTT8=
EXTT9=
EXTT10=
EXTT11=
PLAYORDER=
